<svg width="40" height="40" viewBox="0 0 40 40" fill="none" xmlns="http://www.w3.org/2000/svg">
<path fill-rule="evenodd" clip-rule="evenodd" d="M11.6727 3.98641C12.1055 3.69526 13.3763 3.09494 14.997 3.0229C15.5805 2.99696 16.123 2.88138 16.7277 2.75254C18.2222 2.43409 20.0967 2.03467 23.9108 2.70776C29.2681 3.65316 32.7796 6.03918 36.021 10.6311C39.2624 15.2231 39.1273 22.2011 38.5421 24.4971C37.9568 26.7931 36.2911 30.2145 34.2202 32.2854C32.1493 34.3563 30.3486 35.932 26.612 37.0575C22.8754 38.183 15.132 37.5527 13.0611 36.6073C10.9903 35.6619 7.07358 33.3209 5.58795 31.7452C4.10231 30.1695 2.25652 27.1982 1.71629 24.0019C1.66192 23.6802 1.60847 23.3763 1.5573 23.0854C1.10004 20.4859 0.825541 18.9254 1.71629 14.998C2.19649 15.2081 3.35499 15.5022 4.14733 14.998C4.93967 14.4938 5.11291 13.8251 5.10049 13.5537C5.72091 13.654 7.09057 13.6564 7.60589 12.8636C8.25004 11.8726 8.43173 11.5588 8.26656 10.7495C8.7951 10.6063 9.97109 10.1417 10.4468 9.42813C11.0414 8.53623 10.6119 7.29747 10.3146 7.11579C10.686 6.9286 11.4774 6.40887 11.6727 5.82748C11.8679 5.24609 11.754 4.35786 11.6727 3.98641ZM19.4226 13.0082C21.2325 12.889 22.9635 12.7749 24.5411 14.2342C25.1699 14.8158 25.5793 15.1048 25.8755 15.314C26.3431 15.6442 26.529 15.7754 26.8516 16.5446C26.9434 16.7637 27.055 17.0037 27.1736 17.2588C27.7354 18.4673 28.4551 20.0154 27.9866 21.2872C27.8586 21.6346 27.7615 21.9408 27.674 22.2169C27.3734 23.1649 27.1853 23.7583 26.2436 24.4489C26.1766 24.498 26.109 24.5483 26.0402 24.5994C24.8593 25.4774 23.3496 26.5999 19.5959 25.9487C15.6235 25.2596 14.5696 24.1246 13.7589 21.7736C12.9482 19.4226 13.5157 17.4769 14.448 15.8556C14.6367 15.6223 14.9676 15.3702 15.3085 15.1106C15.7515 14.7732 16.2113 14.423 16.3978 14.0844C16.6619 13.6052 18.4237 13.1739 19.2716 13.0181C19.322 13.0149 19.3723 13.0115 19.4226 13.0082Z" fill="#C38316"/>
</svg>
