<svg width="219" height="206" viewBox="0 0 219 206" fill="none" xmlns="http://www.w3.org/2000/svg">
<path fill-rule="evenodd" clip-rule="evenodd" d="M61.256 10.3571C63.762 8.67126 71.1201 5.19533 80.5042 4.77821C83.883 4.62801 87.024 3.95875 90.525 3.21274C99.1785 1.36888 110.032 -0.943798 132.117 2.95345C163.136 8.4275 183.468 22.2429 202.236 48.8311C221.005 75.4193 220.223 115.823 216.834 129.117C213.445 142.411 203.801 162.222 191.81 174.213C179.819 186.204 169.392 195.327 147.757 201.844C126.121 208.36 81.2862 204.711 69.2954 199.237C57.3047 193.763 34.6265 180.208 26.0244 171.085C17.4223 161.961 6.73494 144.757 3.60691 126.25C3.29212 124.387 2.9826 122.628 2.68633 120.943C0.0387091 105.892 -1.55066 96.8563 3.60691 74.116C6.38737 75.3325 13.0952 77.0355 17.683 74.116C22.2708 71.1965 23.2739 67.3245 23.202 65.7534C26.7943 66.3341 34.7248 66.3479 37.7086 61.7575C41.4384 56.0194 42.4903 54.2023 41.534 49.5162C44.5943 48.6874 51.4035 45.9969 54.1578 41.8655C57.6006 36.7012 55.1141 29.5286 53.3927 28.4766C55.5427 27.3928 60.1254 24.3835 61.256 21.0171C62.3866 17.6508 61.7271 12.5078 61.256 10.3571ZM106.128 62.5959C116.607 61.9055 126.63 61.2451 135.765 69.6943C139.405 73.0622 141.776 74.7356 143.491 75.9467C146.198 77.8584 147.275 78.6183 149.143 83.0723C149.674 84.3407 150.32 85.7302 151.007 87.2075C154.26 94.2045 158.427 103.169 155.714 110.532C154.973 112.544 154.411 114.317 153.904 115.916C152.164 121.405 151.075 124.84 145.622 128.839C145.234 129.123 144.843 129.415 144.444 129.711C137.607 134.795 128.866 141.294 107.131 137.523C84.13 133.533 78.0278 126.962 73.3337 113.349C68.6397 99.7362 71.9255 88.4704 77.3237 79.0824C78.4165 77.7316 80.3326 76.2722 82.3064 74.7688C84.8713 72.8152 87.5337 70.7873 88.6137 68.8273C90.1426 66.0526 100.344 63.5552 105.253 62.6533C105.545 62.6343 105.837 62.6151 106.128 62.5959Z" fill="#C38316"/>
</svg>
